<svg id="Component_1_1" data-name="Component 1 – 1" xmlns="http://www.w3.org/2000/svg" width="65" height="24.068" viewBox="0 0 65 24.068">
  <path id="box" d="M1.438,8.284A1.4,1.4,0,0,0,0,9.633V20.957A6.885,6.885,0,0,0,6.92,27.7a7.075,7.075,0,0,0,6.2-3.685A7.042,7.042,0,0,0,19.233,27.7a6.943,6.943,0,0,0,7.011-6.92,6.773,6.773,0,0,0-6.92-6.742,6.958,6.958,0,0,0-6.111,3.595,7,7,0,0,0-6.2-3.6,7.392,7.392,0,0,0-4.226,1.349V9.633A1.38,1.38,0,0,0,1.438,8.284ZM26.4,13.89a1.425,1.425,0,0,0-1.056.237,1.511,1.511,0,0,0-.27,1.977l3.595,4.674-3.594,4.673a1.315,1.315,0,0,0,.27,1.89,1.4,1.4,0,0,0,1.974-.183L30.381,23.2l3.144,4.046a1.5,1.5,0,0,0,1.977.18,1.384,1.384,0,0,0,.181-1.888l-3.507-4.673,3.507-4.585a1.377,1.377,0,1,0-2.158-1.707l-3.144,3.864L27.321,14.4a1.5,1.5,0,0,0-.918-.507ZM6.92,16.731a4.2,4.2,0,0,1,4.226,4.137A4.144,4.144,0,0,1,6.92,25,4.143,4.143,0,0,1,2.7,20.868,4.2,4.2,0,0,1,6.92,16.731Zm12.405,0a4.2,4.2,0,0,1,4.224,4.137A4.259,4.259,0,0,1,19.325,25,4.145,4.145,0,0,1,15.1,20.868a4.2,4.2,0,0,1,4.226-4.137Z" transform="translate(29 -5.967)" fill="#5e5e5e"/>
  <path id="send" d="M23.691.148a.839.839,0,0,1,.362.86L20.615,21.637a.845.845,0,0,1-.43.6.823.823,0,0,1-.417.108.906.906,0,0,1-.322-.067L13.363,19.8l-3.25,3.962a.791.791,0,0,1-.658.309.73.73,0,0,1-.3-.053.859.859,0,0,1-.564-.806V18.521L20.2,4.3,5.842,16.721l-5.3-2.175a.85.85,0,0,1-.108-1.531L22.777.121A.82.82,0,0,1,23.207,0a.833.833,0,0,1,.483.148Z" transform="translate(0.002)" fill="#00c4ff"/>
</svg>
